<?xml version="1.0" encoding="UTF-8" standalone="no"?><svg xmlns="http://www.w3.org/2000/svg" xmlns:xlink="http://www.w3.org/1999/xlink" contentScriptType="application/ecmascript" contentStyleType="text/css" height="799px" preserveAspectRatio="none" style="width:1949px;height:799px;" version="1.1" viewBox="0 0 1949 799" width="1949px" zoomAndPan="magnify"><defs><filter height="300%" id="f1g74c11ddedid" width="300%" x="-1" y="-1"><feGaussianBlur result="blurOut" stdDeviation="2.0"/><feColorMatrix in="blurOut" result="blurOut2" type="matrix" values="0 0 0 0 0 0 0 0 0 0 0 0 0 0 0 0 0 0 .4 0"/><feOffset dx="4.0" dy="4.0" in="blurOut2" result="blurOut3"/><feBlend in="SourceGraphic" in2="blurOut3" mode="normal"/></filter></defs><g><line style="stroke:#A80036;stroke-width:1.0;stroke-dasharray:5.0,5.0;" x1="71" x2="71" y1="40.2969" y2="756.3516"/><line style="stroke:#A80036;stroke-width:1.0;stroke-dasharray:5.0,5.0;" x1="204" x2="204" y1="40.2969" y2="756.3516"/><line style="stroke:#A80036;stroke-width:1.0;stroke-dasharray:5.0,5.0;" x1="409.5" x2="409.5" y1="40.2969" y2="756.3516"/><line style="stroke:#A80036;stroke-width:1.0;stroke-dasharray:5.0,5.0;" x1="641.5" x2="641.5" y1="40.2969" y2="756.3516"/><line style="stroke:#A80036;stroke-width:1.0;stroke-dasharray:5.0,5.0;" x1="831.5" x2="831.5" y1="40.2969" y2="756.3516"/><line style="stroke:#A80036;stroke-width:1.0;stroke-dasharray:5.0,5.0;" x1="1000.5" x2="1000.5" y1="40.2969" y2="756.3516"/><line style="stroke:#A80036;stroke-width:1.0;stroke-dasharray:5.0,5.0;" x1="1264.5" x2="1264.5" y1="40.2969" y2="756.3516"/><line style="stroke:#A80036;stroke-width:1.0;stroke-dasharray:5.0,5.0;" x1="1434.5" x2="1434.5" y1="40.2969" y2="756.3516"/><line style="stroke:#A80036;stroke-width:1.0;stroke-dasharray:5.0,5.0;" x1="1564.5" x2="1564.5" y1="40.2969" y2="756.3516"/><line style="stroke:#A80036;stroke-width:1.0;stroke-dasharray:5.0,5.0;" x1="1722.5" x2="1722.5" y1="40.2969" y2="756.3516"/><line style="stroke:#A80036;stroke-width:1.0;stroke-dasharray:5.0,5.0;" x1="1882.5" x2="1882.5" y1="40.2969" y2="756.3516"/><rect fill="#FEFECE" filter="url(#f1g74c11ddedid)" height="30.2969" style="stroke:#A80036;stroke-width:1.5;" width="129" x="5" y="5"/><text fill="#000000" font-family="sans-serif" font-size="14" lengthAdjust="spacing" textLength="115" x="12" y="24.9951">DubboBootstrap</text><rect fill="#FEFECE" filter="url(#f1g74c11ddedid)" height="30.2969" style="stroke:#A80036;stroke-width:1.5;" width="129" x="5" y="755.3516"/><text fill="#000000" font-family="sans-serif" font-size="14" lengthAdjust="spacing" textLength="115" x="12" y="775.3467">DubboBootstrap</text><rect fill="#FEFECE" filter="url(#f1g74c11ddedid)" height="30.2969" style="stroke:#A80036;stroke-width:1.5;" width="108" x="148" y="5"/><text fill="#000000" font-family="sans-serif" font-size="14" lengthAdjust="spacing" textLength="94" x="155" y="24.9951">ServiceConfig</text><rect fill="#FEFECE" filter="url(#f1g74c11ddedid)" height="30.2969" style="stroke:#A80036;stroke-width:1.5;" width="108" x="148" y="755.3516"/><text fill="#000000" font-family="sans-serif" font-size="14" lengthAdjust="spacing" textLength="94" x="155" y="775.3467">ServiceConfig</text><rect fill="#FEFECE" filter="url(#f1g74c11ddedid)" height="30.2969" style="stroke:#A80036;stroke-width:1.5;" width="273" x="271.5" y="5"/><text fill="#000000" font-family="sans-serif" font-size="14" lengthAdjust="spacing" textLength="259" x="278.5" y="24.9951">ConfigurableMetadataServiceExporter</text><rect fill="#FEFECE" filter="url(#f1g74c11ddedid)" height="30.2969" style="stroke:#A80036;stroke-width:1.5;" width="273" x="271.5" y="755.3516"/><text fill="#000000" font-family="sans-serif" font-size="14" lengthAdjust="spacing" textLength="259" x="278.5" y="775.3467">ConfigurableMetadataServiceExporter</text><rect fill="#FEFECE" filter="url(#f1g74c11ddedid)" height="30.2969" style="stroke:#A80036;stroke-width:1.5;" width="162" x="558.5" y="5"/><text fill="#000000" font-family="sans-serif" font-size="14" lengthAdjust="spacing" textLength="148" x="565.5" y="24.9951">ProtocolFilterWrapper</text><rect fill="#FEFECE" filter="url(#f1g74c11ddedid)" height="30.2969" style="stroke:#A80036;stroke-width:1.5;" width="162" x="558.5" y="755.3516"/><text fill="#000000" font-family="sans-serif" font-size="14" lengthAdjust="spacing" textLength="148" x="565.5" y="775.3467">ProtocolFilterWrapper</text><rect fill="#FEFECE" filter="url(#f1g74c11ddedid)" height="30.2969" style="stroke:#A80036;stroke-width:1.5;" width="184" x="737.5" y="5"/><text fill="#000000" font-family="sans-serif" font-size="14" lengthAdjust="spacing" textLength="170" x="744.5" y="24.9951">ProtocolListenerWrapper</text><rect fill="#FEFECE" filter="url(#f1g74c11ddedid)" height="30.2969" style="stroke:#A80036;stroke-width:1.5;" width="184" x="737.5" y="755.3516"/><text fill="#000000" font-family="sans-serif" font-size="14" lengthAdjust="spacing" textLength="170" x="744.5" y="775.3467">ProtocolListenerWrapper</text><rect fill="#FEFECE" filter="url(#f1g74c11ddedid)" height="30.2969" style="stroke:#A80036;stroke-width:1.5;" width="127" x="935.5" y="5"/><text fill="#000000" font-family="sans-serif" font-size="14" lengthAdjust="spacing" textLength="113" x="942.5" y="24.9951">RegistryProtocol</text><rect fill="#FEFECE" filter="url(#f1g74c11ddedid)" height="30.2969" style="stroke:#A80036;stroke-width:1.5;" width="127" x="935.5" y="755.3516"/><text fill="#000000" font-family="sans-serif" font-size="14" lengthAdjust="spacing" textLength="113" x="942.5" y="775.3467">RegistryProtocol</text><rect fill="#FEFECE" filter="url(#f1g74c11ddedid)" height="30.2969" style="stroke:#A80036;stroke-width:1.5;" width="187" x="1169.5" y="5"/><text fill="#000000" font-family="sans-serif" font-size="14" lengthAdjust="spacing" textLength="173" x="1176.5" y="24.9951">ServiceDiscoveryRegistry</text><rect fill="#FEFECE" filter="url(#f1g74c11ddedid)" height="30.2969" style="stroke:#A80036;stroke-width:1.5;" width="187" x="1169.5" y="755.3516"/><text fill="#000000" font-family="sans-serif" font-size="14" lengthAdjust="spacing" textLength="173" x="1176.5" y="775.3467">ServiceDiscoveryRegistry</text><rect fill="#FEFECE" filter="url(#f1g74c11ddedid)" height="30.2969" style="stroke:#A80036;stroke-width:1.5;" width="125" x="1370.5" y="5"/><text fill="#000000" font-family="sans-serif" font-size="14" lengthAdjust="spacing" textLength="111" x="1377.5" y="24.9951">FailbackRegistry</text><rect fill="#FEFECE" filter="url(#f1g74c11ddedid)" height="30.2969" style="stroke:#A80036;stroke-width:1.5;" width="125" x="1370.5" y="755.3516"/><text fill="#000000" font-family="sans-serif" font-size="14" lengthAdjust="spacing" textLength="111" x="1377.5" y="775.3467">FailbackRegistry</text><rect fill="#00FF00" filter="url(#f1g74c11ddedid)" height="30.2969" style="stroke:#A80036;stroke-width:1.5;" width="106" x="1509.5" y="5"/><text fill="#000000" font-family="sans-serif" font-size="14" lengthAdjust="spacing" textLength="92" x="1516.5" y="24.9951">InjvmProtocol</text><rect fill="#00FF00" filter="url(#f1g74c11ddedid)" height="30.2969" style="stroke:#A80036;stroke-width:1.5;" width="106" x="1509.5" y="755.3516"/><text fill="#000000" font-family="sans-serif" font-size="14" lengthAdjust="spacing" textLength="92" x="1516.5" y="775.3467">InjvmProtocol</text><rect fill="#00FF00" filter="url(#f1g74c11ddedid)" height="30.2969" style="stroke:#A80036;stroke-width:1.5;" width="183" x="1629.5" y="5"/><text fill="#000000" font-family="sans-serif" font-size="14" lengthAdjust="spacing" textLength="169" x="1636.5" y="24.9951">WritableMetadataService</text><rect fill="#00FF00" filter="url(#f1g74c11ddedid)" height="30.2969" style="stroke:#A80036;stroke-width:1.5;" width="183" x="1629.5" y="755.3516"/><text fill="#000000" font-family="sans-serif" font-size="14" lengthAdjust="spacing" textLength="169" x="1636.5" y="775.3467">WritableMetadataService</text><rect fill="#00FF00" filter="url(#f1g74c11ddedid)" height="30.2969" style="stroke:#A80036;stroke-width:1.5;" width="109" x="1826.5" y="5"/><text fill="#000000" font-family="sans-serif" font-size="14" lengthAdjust="spacing" textLength="95" x="1833.5" y="24.9951">TripleProtocol</text><rect fill="#00FF00" filter="url(#f1g74c11ddedid)" height="30.2969" style="stroke:#A80036;stroke-width:1.5;" width="109" x="1826.5" y="755.3516"/><text fill="#000000" font-family="sans-serif" font-size="14" lengthAdjust="spacing" textLength="95" x="1833.5" y="775.3467">TripleProtocol</text><polygon fill="#A80036" points="192,67.4297,202,71.4297,192,75.4297,196,71.4297" style="stroke:#A80036;stroke-width:1.0;"/><line style="stroke:#A80036;stroke-width:1.0;" x1="71.5" x2="198" y1="71.4297" y2="71.4297"/><text fill="#000000" font-family="sans-serif" font-size="13" font-weight="bold" lengthAdjust="spacing" textLength="9" x="78.5" y="66.3638">1</text><text fill="#000000" font-family="sans-serif" font-size="13" lengthAdjust="spacing" textLength="86" x="91.5" y="66.3638">暴露Triple服务</text><polygon fill="#A80036" points="629.5,96.5625,639.5,100.5625,629.5,104.5625,633.5,100.5625" style="stroke:#A80036;stroke-width:1.0;"/><line style="stroke:#A80036;stroke-width:1.0;" x1="204" x2="635.5" y1="100.5625" y2="100.5625"/><text fill="#000000" font-family="sans-serif" font-size="13" font-weight="bold" lengthAdjust="spacing" textLength="9" x="211" y="95.4966">2</text><text fill="#000000" font-family="sans-serif" font-size="13" lengthAdjust="spacing" textLength="116" x="224" y="95.4966">为Invoker添加Filter</text><polygon fill="#A80036" points="819.5,125.6953,829.5,129.6953,819.5,133.6953,823.5,129.6953" style="stroke:#A80036;stroke-width:1.0;"/><line style="stroke:#A80036;stroke-width:1.0;" x1="641.5" x2="825.5" y1="129.6953" y2="129.6953"/><text fill="#000000" font-family="sans-serif" font-size="13" font-weight="bold" lengthAdjust="spacing" textLength="9" x="648.5" y="124.6294">3</text><text fill="#000000" font-family="sans-serif" font-size="13" lengthAdjust="spacing" textLength="144" x="661.5" y="124.6294">为Exporter添加Listener</text><polygon fill="#A80036" points="1552.5,154.8281,1562.5,158.8281,1552.5,162.8281,1556.5,158.8281" style="stroke:#A80036;stroke-width:1.0;"/><line style="stroke:#A80036;stroke-width:1.0;" x1="831.5" x2="1558.5" y1="158.8281" y2="158.8281"/><text fill="#000000" font-family="sans-serif" font-size="13" font-weight="bold" lengthAdjust="spacing" textLength="9" x="838.5" y="153.7622">4</text><text fill="#000000" font-family="sans-serif" font-size="13" lengthAdjust="spacing" textLength="125" x="851.5" y="153.7622">暴露Injvm协议的服务</text><polygon fill="#A80036" points="629.5,183.9609,639.5,187.9609,629.5,191.9609,633.5,187.9609" style="stroke:#A80036;stroke-width:1.0;"/><line style="stroke:#A80036;stroke-width:1.0;" x1="204" x2="635.5" y1="187.9609" y2="187.9609"/><text fill="#000000" font-family="sans-serif" font-size="13" font-weight="bold" lengthAdjust="spacing" textLength="9" x="211" y="182.895">5</text><text fill="#000000" font-family="sans-serif" font-size="13" lengthAdjust="spacing" textLength="215" x="224" y="182.895">注册service-discovery-registry协议</text><polygon fill="#A80036" points="819.5,213.0938,829.5,217.0938,819.5,221.0938,823.5,217.0938" style="stroke:#A80036;stroke-width:1.0;"/><line style="stroke:#A80036;stroke-width:1.0;" x1="641.5" x2="825.5" y1="217.0938" y2="217.0938"/><text fill="#000000" font-family="sans-serif" font-size="13" font-weight="bold" lengthAdjust="spacing" textLength="9" x="648.5" y="212.0278">6</text><text fill="#000000" font-family="sans-serif" font-size="13" lengthAdjust="spacing" textLength="0" x="665.5" y="212.0278"/><polygon fill="#A80036" points="989,242.2266,999,246.2266,989,250.2266,993,246.2266" style="stroke:#A80036;stroke-width:1.0;"/><line style="stroke:#A80036;stroke-width:1.0;" x1="831.5" x2="995" y1="246.2266" y2="246.2266"/><text fill="#000000" font-family="sans-serif" font-size="13" font-weight="bold" lengthAdjust="spacing" textLength="9" x="838.5" y="241.1606">7</text><text fill="#000000" font-family="sans-serif" font-size="13" lengthAdjust="spacing" textLength="113" x="851.5" y="241.1606">注册Metadata服务</text><polygon fill="#A80036" points="652.5,254.2266,642.5,258.2266,652.5,262.2266,648.5,258.2266" style="stroke:#A80036;stroke-width:1.0;"/><line style="stroke:#A80036;stroke-width:1.0;" x1="646.5" x2="1000" y1="258.2266" y2="258.2266"/><text fill="#000000" font-family="sans-serif" font-size="13" font-weight="bold" lengthAdjust="spacing" textLength="9" x="658.5" y="271.2935">8</text><text fill="#000000" font-family="sans-serif" font-size="13" lengthAdjust="spacing" textLength="116" x="671.5" y="271.2935">为Invoker添加Filter</text><polygon fill="#A80036" points="819.5,300.4922,829.5,304.4922,819.5,308.4922,823.5,304.4922" style="stroke:#A80036;stroke-width:1.0;"/><line style="stroke:#A80036;stroke-width:1.0;" x1="641.5" x2="825.5" y1="304.4922" y2="304.4922"/><text fill="#000000" font-family="sans-serif" font-size="13" font-weight="bold" lengthAdjust="spacing" textLength="9" x="648.5" y="299.4263">9</text><text fill="#000000" font-family="sans-serif" font-size="13" lengthAdjust="spacing" textLength="144" x="661.5" y="299.4263">为Exporter添加Listener</text><polygon fill="#A80036" points="1711,329.625,1721,333.625,1711,337.625,1715,333.625" style="stroke:#A80036;stroke-width:1.0;"/><line style="stroke:#A80036;stroke-width:1.0;" x1="831.5" x2="1717" y1="333.625" y2="333.625"/><text fill="#000000" font-family="sans-serif" font-size="13" font-weight="bold" lengthAdjust="spacing" textLength="18" x="838.5" y="328.5591">10</text><text fill="#000000" font-family="sans-serif" font-size="13" lengthAdjust="spacing" textLength="149" x="860.5" y="328.5591">存储元数据MetedataInfo</text><line style="stroke:#A80036;stroke-width:1.0;" x1="1001" x2="1043" y1="362.7578" y2="362.7578"/><line style="stroke:#A80036;stroke-width:1.0;" x1="1043" x2="1043" y1="362.7578" y2="375.7578"/><line style="stroke:#A80036;stroke-width:1.0;" x1="1002" x2="1043" y1="375.7578" y2="375.7578"/><polygon fill="#A80036" points="1012,371.7578,1002,375.7578,1012,379.7578,1008,375.7578" style="stroke:#A80036;stroke-width:1.0;"/><text fill="#000000" font-family="sans-serif" font-size="13" font-weight="bold" lengthAdjust="spacing" textLength="18" x="1008" y="357.6919">11</text><text fill="#000000" font-family="sans-serif" font-size="13" lengthAdjust="spacing" textLength="228" x="1030" y="357.6919">注册并订阅service-discovery-registry</text><polygon fill="#A80036" points="629.5,400.8906,639.5,404.8906,629.5,408.8906,633.5,404.8906" style="stroke:#A80036;stroke-width:1.0;"/><line style="stroke:#A80036;stroke-width:1.0;" x1="204" x2="635.5" y1="404.8906" y2="404.8906"/><text fill="#000000" font-family="sans-serif" font-size="13" font-weight="bold" lengthAdjust="spacing" textLength="18" x="211" y="399.8247">12</text><text fill="#000000" font-family="sans-serif" font-size="13" lengthAdjust="spacing" textLength="100" x="233" y="399.8247">注册registry协议</text><polygon fill="#A80036" points="819.5,430.0234,829.5,434.0234,819.5,438.0234,823.5,434.0234" style="stroke:#A80036;stroke-width:1.0;"/><line style="stroke:#A80036;stroke-width:1.0;" x1="641.5" x2="825.5" y1="434.0234" y2="434.0234"/><text fill="#000000" font-family="sans-serif" font-size="13" font-weight="bold" lengthAdjust="spacing" textLength="18" x="648.5" y="428.9575">13</text><text fill="#000000" font-family="sans-serif" font-size="13" lengthAdjust="spacing" textLength="0" x="674.5" y="428.9575"/><polygon fill="#A80036" points="989,459.1563,999,463.1563,989,467.1563,993,463.1563" style="stroke:#A80036;stroke-width:1.0;"/><line style="stroke:#A80036;stroke-width:1.0;" x1="831.5" x2="995" y1="463.1563" y2="463.1563"/><text fill="#000000" font-family="sans-serif" font-size="13" font-weight="bold" lengthAdjust="spacing" textLength="18" x="838.5" y="458.0903">14</text><text fill="#000000" font-family="sans-serif" font-size="13" lengthAdjust="spacing" textLength="78" x="860.5" y="458.0903">暴露Provider</text><polygon fill="#A80036" points="652.5,471.1563,642.5,475.1563,652.5,479.1563,648.5,475.1563" style="stroke:#A80036;stroke-width:1.0;"/><line style="stroke:#A80036;stroke-width:1.0;" x1="646.5" x2="1000" y1="475.1563" y2="475.1563"/><text fill="#000000" font-family="sans-serif" font-size="13" font-weight="bold" lengthAdjust="spacing" textLength="18" x="658.5" y="488.2231">15</text><text fill="#000000" font-family="sans-serif" font-size="13" lengthAdjust="spacing" textLength="116" x="680.5" y="488.2231">为Invoker添加Filter</text><polygon fill="#A80036" points="819.5,517.4219,829.5,521.4219,819.5,525.4219,823.5,521.4219" style="stroke:#A80036;stroke-width:1.0;"/><line style="stroke:#A80036;stroke-width:1.0;" x1="641.5" x2="825.5" y1="521.4219" y2="521.4219"/><text fill="#000000" font-family="sans-serif" font-size="13" font-weight="bold" lengthAdjust="spacing" textLength="18" x="648.5" y="516.356">16</text><text fill="#000000" font-family="sans-serif" font-size="13" lengthAdjust="spacing" textLength="144" x="670.5" y="516.356">为Exporter添加Listener</text><polygon fill="#A80036" points="1871,546.5547,1881,550.5547,1871,554.5547,1875,550.5547" style="stroke:#A80036;stroke-width:1.0;"/><line style="stroke:#A80036;stroke-width:1.0;" x1="831.5" x2="1877" y1="550.5547" y2="550.5547"/><text fill="#000000" font-family="sans-serif" font-size="13" font-weight="bold" lengthAdjust="spacing" textLength="18" x="838.5" y="545.4888">17</text><text fill="#000000" font-family="sans-serif" font-size="13" lengthAdjust="spacing" textLength="125" x="860.5" y="545.4888">暴露Triple协议的服务</text><line style="stroke:#A80036;stroke-width:1.0;" x1="1001" x2="1043" y1="579.6875" y2="579.6875"/><line style="stroke:#A80036;stroke-width:1.0;" x1="1043" x2="1043" y1="579.6875" y2="592.6875"/><line style="stroke:#A80036;stroke-width:1.0;" x1="1002" x2="1043" y1="592.6875" y2="592.6875"/><polygon fill="#A80036" points="1012,588.6875,1002,592.6875,1012,596.6875,1008,592.6875" style="stroke:#A80036;stroke-width:1.0;"/><text fill="#000000" font-family="sans-serif" font-size="13" font-weight="bold" lengthAdjust="spacing" textLength="18" x="1008" y="574.6216">18</text><text fill="#000000" font-family="sans-serif" font-size="13" lengthAdjust="spacing" textLength="113" x="1030" y="574.6216">注册并订阅registry</text><polygon fill="#A80036" points="398,617.8203,408,621.8203,398,625.8203,402,621.8203" style="stroke:#A80036;stroke-width:1.0;"/><line style="stroke:#A80036;stroke-width:1.0;" x1="71.5" x2="404" y1="621.8203" y2="621.8203"/><text fill="#000000" font-family="sans-serif" font-size="13" font-weight="bold" lengthAdjust="spacing" textLength="18" x="78.5" y="616.7544">19</text><text fill="#000000" font-family="sans-serif" font-size="13" lengthAdjust="spacing" textLength="0" x="104.5" y="616.7544"/><polygon fill="#A80036" points="215,629.8203,205,633.8203,215,637.8203,211,633.8203" style="stroke:#A80036;stroke-width:1.0;"/><line style="stroke:#A80036;stroke-width:1.0;" x1="209" x2="409" y1="633.8203" y2="633.8203"/><text fill="#000000" font-family="sans-serif" font-size="13" font-weight="bold" lengthAdjust="spacing" textLength="18" x="221" y="646.8872">20</text><text fill="#000000" font-family="sans-serif" font-size="13" lengthAdjust="spacing" textLength="160" x="243" y="646.8872">暴露MetadataService服务</text><polygon fill="#A80036" points="629.5,676.0859,639.5,680.0859,629.5,684.0859,633.5,680.0859" style="stroke:#A80036;stroke-width:1.0;"/><line style="stroke:#A80036;stroke-width:1.0;" x1="204" x2="635.5" y1="680.0859" y2="680.0859"/><text fill="#000000" font-family="sans-serif" font-size="13" font-weight="bold" lengthAdjust="spacing" textLength="18" x="211" y="675.02">21</text><text fill="#000000" font-family="sans-serif" font-size="13" lengthAdjust="spacing" textLength="116" x="233" y="675.02">为Invoker添加Filter</text><polygon fill="#A80036" points="819.5,705.2188,829.5,709.2188,819.5,713.2188,823.5,709.2188" style="stroke:#A80036;stroke-width:1.0;"/><line style="stroke:#A80036;stroke-width:1.0;" x1="641.5" x2="825.5" y1="709.2188" y2="709.2188"/><text fill="#000000" font-family="sans-serif" font-size="13" font-weight="bold" lengthAdjust="spacing" textLength="18" x="648.5" y="704.1528">22</text><text fill="#000000" font-family="sans-serif" font-size="13" lengthAdjust="spacing" textLength="144" x="670.5" y="704.1528">为Exporter添加Listener</text><polygon fill="#A80036" points="1552.5,734.3516,1562.5,738.3516,1552.5,742.3516,1556.5,738.3516" style="stroke:#A80036;stroke-width:1.0;"/><line style="stroke:#A80036;stroke-width:1.0;" x1="831.5" x2="1558.5" y1="738.3516" y2="738.3516"/><text fill="#000000" font-family="sans-serif" font-size="13" font-weight="bold" lengthAdjust="spacing" textLength="18" x="838.5" y="733.2856">23</text><text fill="#000000" font-family="sans-serif" font-size="13" lengthAdjust="spacing" textLength="233" x="860.5" y="733.2856">暴露Injvm协议的MetadataService服务</text></g></svg>