<?xml version="1.0" encoding="UTF-8" standalone="no"?><svg xmlns="http://www.w3.org/2000/svg" xmlns:xlink="http://www.w3.org/1999/xlink" contentScriptType="application/ecmascript" contentStyleType="text/css" height="336px" preserveAspectRatio="none" style="width:1190px;height:336px;" version="1.1" viewBox="0 0 1190 336" width="1190px" zoomAndPan="magnify"><defs><filter height="300%" id="fukqct5gh13i1" width="300%" x="-1" y="-1"><feGaussianBlur result="blurOut" stdDeviation="2.0"/><feColorMatrix in="blurOut" result="blurOut2" type="matrix" values="0 0 0 0 0 0 0 0 0 0 0 0 0 0 0 0 0 0 .4 0"/><feOffset dx="4.0" dy="4.0" in="blurOut2" result="blurOut3"/><feBlend in="SourceGraphic" in2="blurOut3" mode="normal"/></filter></defs><g><line style="stroke:#A80036;stroke-width:1.0;stroke-dasharray:5.0,5.0;" x1="71" x2="71" y1="40.2969" y2="293.3594"/><line style="stroke:#A80036;stroke-width:1.0;stroke-dasharray:5.0,5.0;" x1="204" x2="204" y1="40.2969" y2="293.3594"/><line style="stroke:#A80036;stroke-width:1.0;stroke-dasharray:5.0,5.0;" x1="353" x2="353" y1="40.2969" y2="293.3594"/><line style="stroke:#A80036;stroke-width:1.0;stroke-dasharray:5.0,5.0;" x1="532" x2="532" y1="40.2969" y2="293.3594"/><line style="stroke:#A80036;stroke-width:1.0;stroke-dasharray:5.0,5.0;" x1="705" x2="705" y1="40.2969" y2="293.3594"/><line style="stroke:#A80036;stroke-width:1.0;stroke-dasharray:5.0,5.0;" x1="965.5" x2="965.5" y1="40.2969" y2="293.3594"/><line style="stroke:#A80036;stroke-width:1.0;stroke-dasharray:5.0,5.0;" x1="1125.5" x2="1125.5" y1="40.2969" y2="293.3594"/><rect fill="#FEFECE" filter="url(#fukqct5gh13i1)" height="30.2969" style="stroke:#A80036;stroke-width:1.5;" width="129" x="5" y="5"/><text fill="#000000" font-family="sans-serif" font-size="14" lengthAdjust="spacing" textLength="115" x="12" y="24.9951">DubboBootstrap</text><rect fill="#FEFECE" filter="url(#fukqct5gh13i1)" height="30.2969" style="stroke:#A80036;stroke-width:1.5;" width="129" x="5" y="292.3594"/><text fill="#000000" font-family="sans-serif" font-size="14" lengthAdjust="spacing" textLength="115" x="12" y="312.3545">DubboBootstrap</text><rect fill="#FEFECE" filter="url(#fukqct5gh13i1)" height="30.2969" style="stroke:#A80036;stroke-width:1.5;" width="108" x="148" y="5"/><text fill="#000000" font-family="sans-serif" font-size="14" lengthAdjust="spacing" textLength="94" x="155" y="24.9951">ServiceConfig</text><rect fill="#FEFECE" filter="url(#fukqct5gh13i1)" height="30.2969" style="stroke:#A80036;stroke-width:1.5;" width="108" x="148" y="292.3594"/><text fill="#000000" font-family="sans-serif" font-size="14" lengthAdjust="spacing" textLength="94" x="155" y="312.3545">ServiceConfig</text><rect fill="#FEFECE" filter="url(#fukqct5gh13i1)" height="30.2969" style="stroke:#A80036;stroke-width:1.5;" width="162" x="270" y="5"/><text fill="#000000" font-family="sans-serif" font-size="14" lengthAdjust="spacing" textLength="148" x="277" y="24.9951">ProtocolFilterWrapper</text><rect fill="#FEFECE" filter="url(#fukqct5gh13i1)" height="30.2969" style="stroke:#A80036;stroke-width:1.5;" width="162" x="270" y="292.3594"/><text fill="#000000" font-family="sans-serif" font-size="14" lengthAdjust="spacing" textLength="148" x="277" y="312.3545">ProtocolFilterWrapper</text><rect fill="#FEFECE" filter="url(#fukqct5gh13i1)" height="30.2969" style="stroke:#A80036;stroke-width:1.5;" width="134" x="463" y="5"/><text fill="#000000" font-family="sans-serif" font-size="14" lengthAdjust="spacing" textLength="120" x="470" y="24.9951">FilterChainBuilder</text><rect fill="#FEFECE" filter="url(#fukqct5gh13i1)" height="30.2969" style="stroke:#A80036;stroke-width:1.5;" width="134" x="463" y="292.3594"/><text fill="#000000" font-family="sans-serif" font-size="14" lengthAdjust="spacing" textLength="120" x="470" y="312.3545">FilterChainBuilder</text><rect fill="#FEFECE" filter="url(#fukqct5gh13i1)" height="30.2969" style="stroke:#A80036;stroke-width:1.5;" width="184" x="611" y="5"/><text fill="#000000" font-family="sans-serif" font-size="14" lengthAdjust="spacing" textLength="170" x="618" y="24.9951">ProtocolListenerWrapper</text><rect fill="#FEFECE" filter="url(#fukqct5gh13i1)" height="30.2969" style="stroke:#A80036;stroke-width:1.5;" width="184" x="611" y="292.3594"/><text fill="#000000" font-family="sans-serif" font-size="14" lengthAdjust="spacing" textLength="170" x="618" y="312.3545">ProtocolListenerWrapper</text><rect fill="#FEFECE" filter="url(#fukqct5gh13i1)" height="30.2969" style="stroke:#A80036;stroke-width:1.5;" width="185" x="871.5" y="5"/><text fill="#000000" font-family="sans-serif" font-size="14" lengthAdjust="spacing" textLength="171" x="878.5" y="24.9951">ListenerExporterWrapper</text><rect fill="#FEFECE" filter="url(#fukqct5gh13i1)" height="30.2969" style="stroke:#A80036;stroke-width:1.5;" width="185" x="871.5" y="292.3594"/><text fill="#000000" font-family="sans-serif" font-size="14" lengthAdjust="spacing" textLength="171" x="878.5" y="312.3545">ListenerExporterWrapper</text><rect fill="#00FF00" filter="url(#fukqct5gh13i1)" height="30.2969" style="stroke:#A80036;stroke-width:1.5;" width="106" x="1070.5" y="5"/><text fill="#000000" font-family="sans-serif" font-size="14" lengthAdjust="spacing" textLength="92" x="1077.5" y="24.9951">InjvmProtocol</text><rect fill="#00FF00" filter="url(#fukqct5gh13i1)" height="30.2969" style="stroke:#A80036;stroke-width:1.5;" width="106" x="1070.5" y="292.3594"/><text fill="#000000" font-family="sans-serif" font-size="14" lengthAdjust="spacing" textLength="92" x="1077.5" y="312.3545">InjvmProtocol</text><polygon fill="#A80036" points="192,67.4297,202,71.4297,192,75.4297,196,71.4297" style="stroke:#A80036;stroke-width:1.0;"/><line style="stroke:#A80036;stroke-width:1.0;" x1="71.5" x2="198" y1="71.4297" y2="71.4297"/><text fill="#000000" font-family="sans-serif" font-size="13" font-weight="bold" lengthAdjust="spacing" textLength="9" x="78.5" y="66.3638">1</text><text fill="#000000" font-family="sans-serif" font-size="13" lengthAdjust="spacing" textLength="86" x="91.5" y="66.3638">暴露Triple服务</text><polygon fill="#A80036" points="341,96.5625,351,100.5625,341,104.5625,345,100.5625" style="stroke:#A80036;stroke-width:1.0;"/><line style="stroke:#A80036;stroke-width:1.0;" x1="204" x2="347" y1="100.5625" y2="100.5625"/><text fill="#000000" font-family="sans-serif" font-size="13" font-weight="bold" lengthAdjust="spacing" textLength="9" x="211" y="95.4966">2</text><text fill="#000000" font-family="sans-serif" font-size="13" lengthAdjust="spacing" textLength="0" x="228" y="95.4966"/><polygon fill="#A80036" points="520,125.6953,530,129.6953,520,133.6953,524,129.6953" style="stroke:#A80036;stroke-width:1.0;"/><line style="stroke:#A80036;stroke-width:1.0;" x1="353" x2="526" y1="129.6953" y2="129.6953"/><text fill="#000000" font-family="sans-serif" font-size="13" font-weight="bold" lengthAdjust="spacing" textLength="9" x="360" y="124.6294">3</text><text fill="#000000" font-family="sans-serif" font-size="13" lengthAdjust="spacing" textLength="116" x="373" y="124.6294">为Invoker添加Filter</text><polygon fill="#A80036" points="364,137.6953,354,141.6953,364,145.6953,360,141.6953" style="stroke:#A80036;stroke-width:1.0;"/><line style="stroke:#A80036;stroke-width:1.0;stroke-dasharray:2.0,2.0;" x1="358" x2="531" y1="141.6953" y2="141.6953"/><text fill="#000000" font-family="sans-serif" font-size="13" font-weight="bold" lengthAdjust="spacing" textLength="9" x="370" y="154.7622">4</text><text fill="#000000" font-family="sans-serif" font-size="13" lengthAdjust="spacing" textLength="142" x="383" y="154.7622">返回嵌套Filter的Invoker</text><polygon fill="#A80036" points="693,183.9609,703,187.9609,693,191.9609,697,187.9609" style="stroke:#A80036;stroke-width:1.0;"/><line style="stroke:#A80036;stroke-width:1.0;" x1="353" x2="699" y1="187.9609" y2="187.9609"/><text fill="#000000" font-family="sans-serif" font-size="13" font-weight="bold" lengthAdjust="spacing" textLength="9" x="360" y="182.895">5</text><text fill="#000000" font-family="sans-serif" font-size="13" lengthAdjust="spacing" textLength="0" x="377" y="182.895"/><polygon fill="#A80036" points="954,213.0938,964,217.0938,954,221.0938,958,217.0938" style="stroke:#A80036;stroke-width:1.0;"/><line style="stroke:#A80036;stroke-width:1.0;" x1="705" x2="960" y1="217.0938" y2="217.0938"/><text fill="#000000" font-family="sans-serif" font-size="13" font-weight="bold" lengthAdjust="spacing" textLength="9" x="712" y="212.0278">6</text><text fill="#000000" font-family="sans-serif" font-size="13" lengthAdjust="spacing" textLength="198" x="725" y="212.0278">为Exporter添加ExporterListener</text><polygon fill="#A80036" points="716,225.0938,706,229.0938,716,233.0938,712,229.0938" style="stroke:#A80036;stroke-width:1.0;"/><line style="stroke:#A80036;stroke-width:1.0;stroke-dasharray:2.0,2.0;" x1="710" x2="965" y1="229.0938" y2="229.0938"/><text fill="#000000" font-family="sans-serif" font-size="13" font-weight="bold" lengthAdjust="spacing" textLength="9" x="722" y="242.1606">7</text><text fill="#000000" font-family="sans-serif" font-size="13" lengthAdjust="spacing" textLength="224" x="735" y="242.1606">返回嵌套ExporterListener的Exporter</text><polygon fill="#A80036" points="1113.5,271.3594,1123.5,275.3594,1113.5,279.3594,1117.5,275.3594" style="stroke:#A80036;stroke-width:1.0;"/><line style="stroke:#A80036;stroke-width:1.0;" x1="705" x2="1119.5" y1="275.3594" y2="275.3594"/><text fill="#000000" font-family="sans-serif" font-size="13" font-weight="bold" lengthAdjust="spacing" textLength="9" x="712" y="270.2935">8</text><text fill="#000000" font-family="sans-serif" font-size="13" lengthAdjust="spacing" textLength="125" x="725" y="270.2935">暴露Injvm协议的服务</text></g></svg>