<?xml version="1.0" encoding="UTF-8" standalone="no"?><svg xmlns="http://www.w3.org/2000/svg" xmlns:xlink="http://www.w3.org/1999/xlink" contentScriptType="application/ecmascript" contentStyleType="text/css" height="365px" preserveAspectRatio="none" style="width:1477px;height:365px;" version="1.1" viewBox="0 0 1477 365" width="1477px" zoomAndPan="magnify"><defs><filter height="300%" id="f1nti5q97mvowm" width="300%" x="-1" y="-1"><feGaussianBlur result="blurOut" stdDeviation="2.0"/><feColorMatrix in="blurOut" result="blurOut2" type="matrix" values="0 0 0 0 0 0 0 0 0 0 0 0 0 0 0 0 0 0 .4 0"/><feOffset dx="4.0" dy="4.0" in="blurOut2" result="blurOut3"/><feBlend in="SourceGraphic" in2="blurOut3" mode="normal"/></filter></defs><g><line style="stroke:#A80036;stroke-width:1.0;stroke-dasharray:5.0,5.0;" x1="71" x2="71" y1="40.2969" y2="322.4922"/><line style="stroke:#A80036;stroke-width:1.0;stroke-dasharray:5.0,5.0;" x1="286" x2="286" y1="40.2969" y2="322.4922"/><line style="stroke:#A80036;stroke-width:1.0;stroke-dasharray:5.0,5.0;" x1="491" x2="491" y1="40.2969" y2="322.4922"/><line style="stroke:#A80036;stroke-width:1.0;stroke-dasharray:5.0,5.0;" x1="640" x2="640" y1="40.2969" y2="322.4922"/><line style="stroke:#A80036;stroke-width:1.0;stroke-dasharray:5.0,5.0;" x1="819" x2="819" y1="40.2969" y2="322.4922"/><line style="stroke:#A80036;stroke-width:1.0;stroke-dasharray:5.0,5.0;" x1="992" x2="992" y1="40.2969" y2="322.4922"/><line style="stroke:#A80036;stroke-width:1.0;stroke-dasharray:5.0,5.0;" x1="1252.5" x2="1252.5" y1="40.2969" y2="322.4922"/><line style="stroke:#A80036;stroke-width:1.0;stroke-dasharray:5.0,5.0;" x1="1412.5" x2="1412.5" y1="40.2969" y2="322.4922"/><rect fill="#FEFECE" filter="url(#f1nti5q97mvowm)" height="30.2969" style="stroke:#A80036;stroke-width:1.5;" width="129" x="5" y="5"/><text fill="#000000" font-family="sans-serif" font-size="14" lengthAdjust="spacing" textLength="115" x="12" y="24.9951">DubboBootstrap</text><rect fill="#FEFECE" filter="url(#f1nti5q97mvowm)" height="30.2969" style="stroke:#A80036;stroke-width:1.5;" width="129" x="5" y="321.4922"/><text fill="#000000" font-family="sans-serif" font-size="14" lengthAdjust="spacing" textLength="115" x="12" y="341.4873">DubboBootstrap</text><rect fill="#FEFECE" filter="url(#f1nti5q97mvowm)" height="30.2969" style="stroke:#A80036;stroke-width:1.5;" width="273" x="148" y="5"/><text fill="#000000" font-family="sans-serif" font-size="14" lengthAdjust="spacing" textLength="259" x="155" y="24.9951">ConfigurableMetadataServiceExporter</text><rect fill="#FEFECE" filter="url(#f1nti5q97mvowm)" height="30.2969" style="stroke:#A80036;stroke-width:1.5;" width="273" x="148" y="321.4922"/><text fill="#000000" font-family="sans-serif" font-size="14" lengthAdjust="spacing" textLength="259" x="155" y="341.4873">ConfigurableMetadataServiceExporter</text><rect fill="#FEFECE" filter="url(#f1nti5q97mvowm)" height="30.2969" style="stroke:#A80036;stroke-width:1.5;" width="108" x="435" y="5"/><text fill="#000000" font-family="sans-serif" font-size="14" lengthAdjust="spacing" textLength="94" x="442" y="24.9951">ServiceConfig</text><rect fill="#FEFECE" filter="url(#f1nti5q97mvowm)" height="30.2969" style="stroke:#A80036;stroke-width:1.5;" width="108" x="435" y="321.4922"/><text fill="#000000" font-family="sans-serif" font-size="14" lengthAdjust="spacing" textLength="94" x="442" y="341.4873">ServiceConfig</text><rect fill="#FEFECE" filter="url(#f1nti5q97mvowm)" height="30.2969" style="stroke:#A80036;stroke-width:1.5;" width="162" x="557" y="5"/><text fill="#000000" font-family="sans-serif" font-size="14" lengthAdjust="spacing" textLength="148" x="564" y="24.9951">ProtocolFilterWrapper</text><rect fill="#FEFECE" filter="url(#f1nti5q97mvowm)" height="30.2969" style="stroke:#A80036;stroke-width:1.5;" width="162" x="557" y="321.4922"/><text fill="#000000" font-family="sans-serif" font-size="14" lengthAdjust="spacing" textLength="148" x="564" y="341.4873">ProtocolFilterWrapper</text><rect fill="#FEFECE" filter="url(#f1nti5q97mvowm)" height="30.2969" style="stroke:#A80036;stroke-width:1.5;" width="134" x="750" y="5"/><text fill="#000000" font-family="sans-serif" font-size="14" lengthAdjust="spacing" textLength="120" x="757" y="24.9951">FilterChainBuilder</text><rect fill="#FEFECE" filter="url(#f1nti5q97mvowm)" height="30.2969" style="stroke:#A80036;stroke-width:1.5;" width="134" x="750" y="321.4922"/><text fill="#000000" font-family="sans-serif" font-size="14" lengthAdjust="spacing" textLength="120" x="757" y="341.4873">FilterChainBuilder</text><rect fill="#FEFECE" filter="url(#f1nti5q97mvowm)" height="30.2969" style="stroke:#A80036;stroke-width:1.5;" width="184" x="898" y="5"/><text fill="#000000" font-family="sans-serif" font-size="14" lengthAdjust="spacing" textLength="170" x="905" y="24.9951">ProtocolListenerWrapper</text><rect fill="#FEFECE" filter="url(#f1nti5q97mvowm)" height="30.2969" style="stroke:#A80036;stroke-width:1.5;" width="184" x="898" y="321.4922"/><text fill="#000000" font-family="sans-serif" font-size="14" lengthAdjust="spacing" textLength="170" x="905" y="341.4873">ProtocolListenerWrapper</text><rect fill="#FEFECE" filter="url(#f1nti5q97mvowm)" height="30.2969" style="stroke:#A80036;stroke-width:1.5;" width="185" x="1158.5" y="5"/><text fill="#000000" font-family="sans-serif" font-size="14" lengthAdjust="spacing" textLength="171" x="1165.5" y="24.9951">ListenerExporterWrapper</text><rect fill="#FEFECE" filter="url(#f1nti5q97mvowm)" height="30.2969" style="stroke:#A80036;stroke-width:1.5;" width="185" x="1158.5" y="321.4922"/><text fill="#000000" font-family="sans-serif" font-size="14" lengthAdjust="spacing" textLength="171" x="1165.5" y="341.4873">ListenerExporterWrapper</text><rect fill="#00FF00" filter="url(#f1nti5q97mvowm)" height="30.2969" style="stroke:#A80036;stroke-width:1.5;" width="106" x="1357.5" y="5"/><text fill="#000000" font-family="sans-serif" font-size="14" lengthAdjust="spacing" textLength="92" x="1364.5" y="24.9951">InjvmProtocol</text><rect fill="#00FF00" filter="url(#f1nti5q97mvowm)" height="30.2969" style="stroke:#A80036;stroke-width:1.5;" width="106" x="1357.5" y="321.4922"/><text fill="#000000" font-family="sans-serif" font-size="14" lengthAdjust="spacing" textLength="92" x="1364.5" y="341.4873">InjvmProtocol</text><polygon fill="#A80036" points="274.5,67.4297,284.5,71.4297,274.5,75.4297,278.5,71.4297" style="stroke:#A80036;stroke-width:1.0;"/><line style="stroke:#A80036;stroke-width:1.0;" x1="71.5" x2="280.5" y1="71.4297" y2="71.4297"/><text fill="#000000" font-family="sans-serif" font-size="13" font-weight="bold" lengthAdjust="spacing" textLength="9" x="78.5" y="66.3638">1</text><text fill="#000000" font-family="sans-serif" font-size="13" lengthAdjust="spacing" textLength="0" x="95.5" y="66.3638"/><polygon fill="#A80036" points="479,96.5625,489,100.5625,479,104.5625,483,100.5625" style="stroke:#A80036;stroke-width:1.0;"/><line style="stroke:#A80036;stroke-width:1.0;" x1="286.5" x2="485" y1="100.5625" y2="100.5625"/><text fill="#000000" font-family="sans-serif" font-size="13" font-weight="bold" lengthAdjust="spacing" textLength="9" x="293.5" y="95.4966">2</text><text fill="#000000" font-family="sans-serif" font-size="13" lengthAdjust="spacing" textLength="160" x="306.5" y="95.4966">暴露MetadataService服务</text><polygon fill="#A80036" points="628,125.6953,638,129.6953,628,133.6953,632,129.6953" style="stroke:#A80036;stroke-width:1.0;"/><line style="stroke:#A80036;stroke-width:1.0;" x1="491" x2="634" y1="129.6953" y2="129.6953"/><text fill="#000000" font-family="sans-serif" font-size="13" font-weight="bold" lengthAdjust="spacing" textLength="9" x="498" y="124.6294">3</text><text fill="#000000" font-family="sans-serif" font-size="13" lengthAdjust="spacing" textLength="0" x="515" y="124.6294"/><polygon fill="#A80036" points="807,154.8281,817,158.8281,807,162.8281,811,158.8281" style="stroke:#A80036;stroke-width:1.0;"/><line style="stroke:#A80036;stroke-width:1.0;" x1="640" x2="813" y1="158.8281" y2="158.8281"/><text fill="#000000" font-family="sans-serif" font-size="13" font-weight="bold" lengthAdjust="spacing" textLength="9" x="647" y="153.7622">4</text><text fill="#000000" font-family="sans-serif" font-size="13" lengthAdjust="spacing" textLength="116" x="660" y="153.7622">为Invoker添加Filter</text><polygon fill="#A80036" points="651,166.8281,641,170.8281,651,174.8281,647,170.8281" style="stroke:#A80036;stroke-width:1.0;"/><line style="stroke:#A80036;stroke-width:1.0;stroke-dasharray:2.0,2.0;" x1="645" x2="818" y1="170.8281" y2="170.8281"/><text fill="#000000" font-family="sans-serif" font-size="13" font-weight="bold" lengthAdjust="spacing" textLength="9" x="657" y="183.895">5</text><text fill="#000000" font-family="sans-serif" font-size="13" lengthAdjust="spacing" textLength="142" x="670" y="183.895">返回嵌套Filter的Invoker</text><polygon fill="#A80036" points="980,213.0938,990,217.0938,980,221.0938,984,217.0938" style="stroke:#A80036;stroke-width:1.0;"/><line style="stroke:#A80036;stroke-width:1.0;" x1="640" x2="986" y1="217.0938" y2="217.0938"/><text fill="#000000" font-family="sans-serif" font-size="13" font-weight="bold" lengthAdjust="spacing" textLength="9" x="647" y="212.0278">6</text><text fill="#000000" font-family="sans-serif" font-size="13" lengthAdjust="spacing" textLength="0" x="664" y="212.0278"/><polygon fill="#A80036" points="1241,242.2266,1251,246.2266,1241,250.2266,1245,246.2266" style="stroke:#A80036;stroke-width:1.0;"/><line style="stroke:#A80036;stroke-width:1.0;" x1="992" x2="1247" y1="246.2266" y2="246.2266"/><text fill="#000000" font-family="sans-serif" font-size="13" font-weight="bold" lengthAdjust="spacing" textLength="9" x="999" y="241.1606">7</text><text fill="#000000" font-family="sans-serif" font-size="13" lengthAdjust="spacing" textLength="198" x="1012" y="241.1606">为Exporter添加ExporterListener</text><polygon fill="#A80036" points="1003,254.2266,993,258.2266,1003,262.2266,999,258.2266" style="stroke:#A80036;stroke-width:1.0;"/><line style="stroke:#A80036;stroke-width:1.0;stroke-dasharray:2.0,2.0;" x1="997" x2="1252" y1="258.2266" y2="258.2266"/><text fill="#000000" font-family="sans-serif" font-size="13" font-weight="bold" lengthAdjust="spacing" textLength="9" x="1009" y="271.2935">8</text><text fill="#000000" font-family="sans-serif" font-size="13" lengthAdjust="spacing" textLength="224" x="1022" y="271.2935">返回嵌套ExporterListener的Exporter</text><polygon fill="#A80036" points="1400.5,300.4922,1410.5,304.4922,1400.5,308.4922,1404.5,304.4922" style="stroke:#A80036;stroke-width:1.0;"/><line style="stroke:#A80036;stroke-width:1.0;" x1="992" x2="1406.5" y1="304.4922" y2="304.4922"/><text fill="#000000" font-family="sans-serif" font-size="13" font-weight="bold" lengthAdjust="spacing" textLength="9" x="999" y="299.4263">9</text><text fill="#000000" font-family="sans-serif" font-size="13" lengthAdjust="spacing" textLength="159" x="1012" y="299.4263">暴露Injvm协议的Triple服务</text></g></svg>